<?xml version="1.0" encoding="UTF-8" standalone="no"?>
<svg width="50px" height="50px" viewBox="0 0 50 50" version="1.1" xmlns="http://www.w3.org/2000/svg" xmlns:xlink="http://www.w3.org/1999/xlink">
    <!-- Generator: Sketch 39.1 (31720) - http://www.bohemiancoding.com/sketch -->
    <title>Behance icon</title>
    <desc>Created with Sketch.</desc>
    <defs></defs>
    <g id="Symbols" stroke="none" stroke-width="1" fill="none" fill-rule="evenodd">
        <g id="Footer" transform="translate(-640.000000, -150.000000)" fill="#FFFFFF">
            <g id="Social-Media" transform="translate(640.000000, 150.000000)">
                <g id="Behance-icon">
                    <g id="Shape">
                        <path d="M67.397,45.708 C65.554,45.708 64.131,46.239 63.12,47.282 C62.102,48.321 61.469,49.736 61.209,51.526 L73.562,51.526 C73.427,49.621 72.791,48.178 71.645,47.193 C70.51,46.205 69.09,45.708 67.397,45.708 L67.397,45.708 Z"></path>
                        <path d="M50.25,0 C22.636,0 0.25,22.385 0.25,50 C0.25,77.613 22.636,100 50.25,100 C77.864,100 100.25,77.613 100.25,50 C100.25,22.385 77.864,0 50.25,0 L50.25,0 Z M59.631,32.45 L75.046,32.45 L75.046,36.279 L75.045,36.279 L59.631,36.279 L59.631,32.45 L59.631,32.45 Z M49.162,63.693 C48.436,64.883 47.536,65.89 46.454,66.699 C45.235,67.637 43.793,68.279 42.134,68.622 C40.47,68.966 38.67,69.139 36.73,69.139 L19.492,69.139 L19.492,30.864 L37.977,30.864 C42.637,30.94 45.939,32.289 47.89,34.941 C49.06,36.567 49.64,38.518 49.64,40.785 C49.64,43.127 49.053,44.999 47.871,46.421 C47.213,47.219 46.242,47.943 44.956,48.6 C46.903,49.313 48.381,50.435 49.369,51.981 C50.364,53.522 50.861,55.391 50.861,57.587 C50.862,59.857 50.301,61.894 49.162,63.693 L49.162,63.693 Z M81,56.256 L61.038,56.256 C61.148,59.011 62.099,60.938 63.903,62.041 C64.991,62.732 66.31,63.07 67.855,63.07 C69.484,63.07 70.812,62.657 71.834,61.811 C72.391,61.363 72.882,60.729 73.307,59.93 L80.623,59.93 C80.432,61.558 79.551,63.208 77.968,64.886 C75.514,67.552 72.074,68.889 67.656,68.889 C64.006,68.889 60.79,67.76 57.997,65.514 C55.214,63.259 53.817,59.603 53.817,54.531 C53.817,49.775 55.071,46.134 57.59,43.6 C60.116,41.061 63.378,39.797 67.398,39.797 C69.78,39.797 71.929,40.224 73.845,41.079 C75.756,41.936 77.335,43.286 78.577,45.14 C79.703,46.773 80.426,48.661 80.764,50.811 C80.95,52.065 81.034,53.881 81,56.256 L81,56.256 Z"></path>
                        <path d="M40.465,45.004 C41.5,44.373 42.017,43.249 42.017,41.639 C42.017,39.859 41.332,38.677 39.961,38.108 C38.782,37.712 37.273,37.508 35.443,37.508 L28.319,37.508 L28.319,45.952 L36.419,45.952 C38.083,45.953 39.429,45.636 40.465,45.004 L40.465,45.004 Z"></path>
                        <path d="M40.362,52.94 C39.455,52.52 38.175,52.305 36.535,52.291 L28.319,52.291 L28.319,62.49 L36.407,62.49 C38.069,62.49 39.355,62.273 40.283,61.819 C41.958,60.984 42.797,59.397 42.797,57.04 C42.797,55.051 41.984,53.676 40.362,52.94 L40.362,52.94 Z"></path>
                    </g>
                </g>
            </g>
        </g>
    </g>
</svg>