<?xml version="1.0" encoding="UTF-8" standalone="no"?>
<svg id="linkedin-icon" fill="#4A4A4A" width="50px" height="50px" viewBox="0 0 100 100">
    <path d="M50.916,0 C23.302,0 0.916,22.385 0.916,50 C0.916,77.613 23.302,100 50.916,100 C78.53,100 100.916,77.613 100.916,50 C100.916,22.385 78.53,0 50.916,0 L50.916,0 Z M38.243,68.948 L28.292,68.948 L28.292,39.011 L38.243,39.011 L38.243,68.948 L38.243,68.948 Z M33.268,34.925 L33.202,34.925 C29.864,34.925 27.702,32.625 27.702,29.752 C27.702,26.813 29.929,24.58 33.335,24.58 C36.741,24.58 38.834,26.812 38.899,29.752 C38.898,32.625 36.74,34.925 33.268,34.925 L33.268,34.925 Z M74.131,68.948 L64.18,68.948 L64.18,52.932 C64.18,48.907 62.741,46.162 59.138,46.162 C56.388,46.162 54.752,48.011 54.032,49.804 C53.769,50.444 53.701,51.334 53.701,52.229 L53.701,68.948 L43.746,68.948 C43.746,68.948 43.881,41.822 43.746,39.011 L53.7,39.011 L53.7,43.254 C55.022,41.218 57.384,38.307 62.67,38.307 C69.221,38.307 74.129,42.584 74.129,51.782 L74.129,68.948 L74.131,68.948 Z"></path>
    <path d="M53.701,43.35 L53.701,43.254 C53.68,43.285 53.655,43.32 53.635,43.35 L53.701,43.35 L53.701,43.35 Z"></path>
</svg>