<?xml version="1.0" encoding="UTF-8" standalone="no"?>
<svg width="50px" height="50px" viewBox="0 0 50 50" version="1.1" xmlns="http://www.w3.org/2000/svg" xmlns:xlink="http://www.w3.org/1999/xlink">
    <g id="tumblr-icon" fill="#4A4A4A">
        <path d="M50.25,0 C22.636,0 0.25,22.385 0.25,50 C0.25,77.613 22.636,100 50.25,100 C77.864,100 100.25,77.613 100.25,50 C100.25,22.385 77.864,0 50.25,0 L50.25,0 Z M62.417,69.229 C60.56,70.094 58.875,70.704 57.366,71.057 C55.854,71.401 54.224,71.578 52.475,71.578 C50.484,71.578 49.309,71.33 47.782,70.835 C46.252,70.333 44.949,69.619 43.868,68.704 C42.788,67.78 42.04,66.798 41.622,65.761 C41.205,64.723 40.996,63.216 40.996,61.24 L40.996,46.105 L35.084,46.105 L35.084,39.993 C36.793,39.447 38.776,38.653 39.994,37.625 C41.217,36.597 42.192,35.363 42.931,33.921 C43.67,32.481 44.179,30.645 44.455,28.421 L50.647,28.421 L50.647,38.402 L60.711,38.402 L60.711,46.105 L50.647,46.105 L50.647,57.171 C50.647,59.675 50.612,61.116 50.882,61.828 C51.147,62.535 51.814,63.268 52.539,63.695 C53.505,64.263 54.603,64.549 55.843,64.549 C58.048,64.549 60.239,63.842 62.419,62.419 L62.419,69.229 L62.417,69.229 Z"></path>
    </g>
</svg>