<?xml version="1.0" encoding="UTF-8" standalone="no"?>
<svg width="51px" height="50px" viewBox="0 0 51 50" version="1.1" xmlns="http://www.w3.org/2000/svg" xmlns:xlink="http://www.w3.org/1999/xlink">
    <!-- Generator: Sketch 39.1 (31720) - http://www.bohemiancoding.com/sketch -->
    <title>Twitter Icon</title>
    <desc>Created with Sketch.</desc>
    <defs></defs>
    <g id="Symbols" stroke="none" stroke-width="1" fill="none" fill-rule="evenodd">
        <g id="Footer" transform="translate(-809.000000, -150.000000)" fill="#FFFFFF">
            <g id="Social-Media" transform="translate(640.000000, 150.000000)">
                <g id="Twitter-Icon" transform="translate(169.541855, 0.000000)">
                    <g id="Shape">
                        <path d="M50.25,0 C22.636,0 0.25,22.385 0.25,50 C0.25,77.613 22.636,100 50.25,100 C77.864,100 100.25,77.613 100.25,50 C100.25,22.385 77.864,0 50.25,0 L50.25,0 Z M72.774,51.087 C67.948,70.641 35.564,78.936 20.666,58.635 C26.372,64.08 36.309,64.558 42.611,58.048 C38.916,58.589 36.227,54.965 40.768,53.008 C36.684,53.453 34.414,51.282 33.483,49.439 C34.44,48.436 35.496,47.972 37.538,47.836 C33.068,46.78 31.417,44.596 30.912,41.944 C32.153,41.646 33.705,41.392 34.554,41.506 C30.637,39.46 29.277,36.382 29.491,34.068 C36.488,36.665 40.944,38.75 44.672,40.749 C46.001,41.458 47.482,42.733 49.153,44.353 C51.281,38.728 53.911,32.93 58.413,30.054 C58.338,30.706 57.988,31.313 57.526,31.81 C58.806,30.65 60.463,29.852 62.151,29.621 C61.956,30.887 60.133,31.6 59.032,32.015 C59.866,31.756 64.299,29.779 64.781,30.905 C65.352,32.185 61.724,32.776 61.106,32.997 C60.647,33.151 60.185,33.322 59.731,33.505 C65.349,32.946 70.71,37.579 72.276,43.328 C72.386,43.742 72.499,44.201 72.599,44.683 C74.655,45.448 78.376,44.645 79.574,43.909 C78.707,45.958 76.453,47.47 73.129,47.744 C74.731,48.41 77.75,48.775 79.833,48.423 C78.516,49.834 76.39,51.119 72.774,51.087 L72.774,51.087 Z"></path>
                    </g>
                </g>
            </g>
        </g>
    </g>
</svg>